<?xml version="1.0" encoding="utf-8"?>
<!-- Generator: Adobe Illustrator 27.5.0, SVG Export Plug-In . SVG Version: 6.00 Build 0)  -->
<svg version="1.1" id="Layer_1" xmlns="http://www.w3.org/2000/svg" xmlns:xlink="http://www.w3.org/1999/xlink" x="0px" y="0px"
	 viewBox="0 0 213 429.6" style="enable-background:new 0 0 213 429.6;" xml:space="preserve">
<style type="text/css">
	.st0{fill:#5E465D;}
	.st1{fill:#706F6F;}
	.st2{fill:#1D1D1B;}
	.st3{fill:#FFFFFF;}
	.st4{fill:url(#SVGID_1_);}
	.st5{fill:url(#SVGID_00000034784249059102826820000002205775673015577777_);}
	.st6{fill:url(#SVGID_00000140014908379401691730000014542545776953013689_);}
	.st7{fill:url(#SVGID_00000004523564254191443240000016187671618318045862_);}
	.st8{fill:url(#SVGID_00000136399857826847008070000015876286698798172594_);}
	.st9{fill:url(#SVGID_00000182491885569600870220000014490630104111398796_);}
	.st10{fill:url(#SVGID_00000165223165077479893970000015417144498511550866_);}
	.st11{fill:url(#SVGID_00000072982279885047555940000008559350942343374483_);}
	.st12{fill:url(#SVGID_00000003803006671555550500000003329209059166909586_);}
	.st13{fill:url(#SVGID_00000131361644545239620390000001232935448518345623_);}
	.st14{fill:url(#SVGID_00000006704679044029855260000011741825493509243048_);}
	.st15{fill:url(#SVGID_00000083072976692046285380000014035423749839461019_);}
	.st16{fill:url(#SVGID_00000033358688847710084300000015870109026207375782_);}
	.st17{fill:url(#SVGID_00000098929928415091793910000016158382489291578753_);}
	.st18{fill:url(#SVGID_00000126283667354308370610000004606049444366484114_);}
	.st19{fill:url(#SVGID_00000068643865533089174330000004538307198748749718_);}
</style>
<path class="st0" d="M177.6,429.6H35.4c-18.5,0-33.6-15-33.6-33.6V33.6C1.8,15,16.8,0,35.4,0h142.3c18.5,0,33.6,15,33.6,33.6V396
	C211.2,414.6,196.2,429.6,177.6,429.6z"/>
<path class="st1" d="M177.4,1H35.6C17.5,1,2.8,15.7,2.8,33.8v361.9c0,18.1,14.7,32.8,32.8,32.8h141.7c18.1,0,32.8-14.7,32.8-32.8
	V33.8C210.2,15.7,195.5,1,177.4,1z M209.2,395.5c0,17.7-14.4,32.1-32.1,32.1H35.9c-17.7,0-32.1-14.4-32.1-32.1V34.1
	C3.8,16.4,18.2,2,35.9,2h141.2c17.7,0,32.1,14.4,32.1,32.1V395.5z"/>
<path class="st2" d="M176.8,426.3H36.2c-17,0-30.9-13.8-30.9-30.9V34.1c0-17,13.8-30.9,30.9-30.9h140.6c17,0,30.9,13.8,30.9,30.9
	v361.3C207.7,412.5,193.8,426.3,176.8,426.3z"/>
<path class="st3" d="M160.6,10.1h16.3c13.3,0,24.1,10.8,24.1,24.1v361.2c0,13.3-10.8,24.1-24.1,24.1H36.1
	c-13.3,0-24.1-10.8-24.1-24.1V34.2c0-13.3,10.8-24.1,24.1-24.1c5.3,0,10.6,0,16.2,0H160.6z"/>
<g>
	<g>
		
			<linearGradient id="SVGID_1_" gradientUnits="userSpaceOnUse" x1="-469.3394" y1="422.908" x2="-417.5611" y2="422.908" gradientTransform="matrix(0 1 -1 0 634.721 579.104)">
			<stop  offset="0" style="stop-color:#68595F"/>
			<stop  offset="1.850530e-02" style="stop-color:#896E80"/>
			<stop  offset="3.819530e-02" style="stop-color:#5E3B5B"/>
			<stop  offset="8.205520e-02" style="stop-color:#2B1D2A"/>
			<stop  offset="0.1053" style="stop-color:#704A6A"/>
			<stop  offset="0.9049" style="stop-color:#615060"/>
			<stop  offset="0.9391" style="stop-color:#2B1D2A"/>
			<stop  offset="0.9646" style="stop-color:#5E3B5B"/>
			<stop  offset="0.9829" style="stop-color:#845675"/>
			<stop  offset="1" style="stop-color:#5B4A5C"/>
		</linearGradient>
		<rect x="211.2" y="109.8" class="st4" width="1.2" height="51.8"/>
		
			<linearGradient id="SVGID_00000180351198537320214440000005139191022847276701_" gradientUnits="userSpaceOnUse" x1="-469.326" y1="421.9886" x2="-417.5587" y2="421.9886" gradientTransform="matrix(0 1 -1 0 634.721 579.104)">
			<stop  offset="0" style="stop-color:#676067"/>
			<stop  offset="6.402420e-02" style="stop-color:#654E63"/>
			<stop  offset="0.186" style="stop-color:#786F77"/>
			<stop  offset="0.8064" style="stop-color:#786F77"/>
			<stop  offset="0.9191" style="stop-color:#654E63"/>
			<stop  offset="1" style="stop-color:#676067"/>
		</linearGradient>
		<path style="fill:url(#SVGID_00000180351198537320214440000005139191022847276701_);" d="M212.4,161.5v-51.8l0.6,0.7
			c-0.3,5.5-0.3,44.9,0,50.4L212.4,161.5z"/>
	</g>
	<g>
		
			<linearGradient id="SVGID_00000176021335734464429260000001899637548935778733_" gradientUnits="userSpaceOnUse" x1="-480.2384" y1="877.6034" x2="-447.4384" y2="877.6034" gradientTransform="matrix(0 1 1 0 -876.9034 579.104)">
			<stop  offset="0" style="stop-color:#68595F"/>
			<stop  offset="1.850530e-02" style="stop-color:#896E80"/>
			<stop  offset="3.819530e-02" style="stop-color:#5E3B5B"/>
			<stop  offset="8.205520e-02" style="stop-color:#2D1E2C"/>
			<stop  offset="0.1053" style="stop-color:#704A6A"/>
			<stop  offset="0.9049" style="stop-color:#615060"/>
			<stop  offset="0.9391" style="stop-color:#2D1E2C"/>
			<stop  offset="0.9646" style="stop-color:#5E3B5B"/>
			<stop  offset="0.9829" style="stop-color:#845675"/>
			<stop  offset="1" style="stop-color:#5B4A5C"/>
		</linearGradient>
		
			<rect x="0.3" y="98.9" style="fill:url(#SVGID_00000176021335734464429260000001899637548935778733_);" width="0.7" height="32.8"/>
		
			<linearGradient id="SVGID_00000155123872653088835730000013992922875338691257_" gradientUnits="userSpaceOnUse" x1="-480.2299" y1="877.0784" x2="-447.4369" y2="877.0784" gradientTransform="matrix(0 1 1 0 -876.9034 579.104)">
			<stop  offset="0" style="stop-color:#676067"/>
			<stop  offset="6.402420e-02" style="stop-color:#654E63"/>
			<stop  offset="0.186" style="stop-color:#786F77"/>
			<stop  offset="0.8064" style="stop-color:#786F77"/>
			<stop  offset="0.9191" style="stop-color:#654E63"/>
			<stop  offset="1" style="stop-color:#676067"/>
		</linearGradient>
		<path style="fill:url(#SVGID_00000155123872653088835730000013992922875338691257_);" d="M0.3,131.7V98.9L0,99.3
			c0.2,3.5,0.2,28.5,0,31.9L0.3,131.7z"/>
		
			<linearGradient id="SVGID_00000050621529410148311220000010481289375719728572_" gradientUnits="userSpaceOnUse" x1="1.425" y1="131.6757" x2="1.425" y2="98.8741">
			<stop  offset="0" style="stop-color:#68595F"/>
			<stop  offset="5.306120e-02" style="stop-color:#2D1E2C"/>
			<stop  offset="0.5184" style="stop-color:#5E3B5B"/>
			<stop  offset="0.9646" style="stop-color:#2D1E2C"/>
			<stop  offset="1" style="stop-color:#5B4A5C"/>
		</linearGradient>
		<rect x="1" y="98.9" style="fill:url(#SVGID_00000050621529410148311220000010481289375719728572_);" width="0.8" height="32.8"/>
	</g>
	<g>
		
			<linearGradient id="SVGID_00000102529549747023471730000007134347593162622339_" gradientUnits="userSpaceOnUse" x1="-438.9724" y1="877.6034" x2="-406.1724" y2="877.6034" gradientTransform="matrix(0 1 1 0 -876.9034 579.104)">
			<stop  offset="0" style="stop-color:#68595F"/>
			<stop  offset="1.850530e-02" style="stop-color:#896E80"/>
			<stop  offset="3.819530e-02" style="stop-color:#5E3B5B"/>
			<stop  offset="8.205520e-02" style="stop-color:#2D1E2C"/>
			<stop  offset="0.1053" style="stop-color:#704A6A"/>
			<stop  offset="0.9049" style="stop-color:#615060"/>
			<stop  offset="0.9391" style="stop-color:#2D1E2C"/>
			<stop  offset="0.9646" style="stop-color:#5E3B5B"/>
			<stop  offset="0.9829" style="stop-color:#845675"/>
			<stop  offset="1" style="stop-color:#5B4A5C"/>
		</linearGradient>
		
			<rect x="0.3" y="140.1" style="fill:url(#SVGID_00000102529549747023471730000007134347593162622339_);" width="0.7" height="32.8"/>
		
			<linearGradient id="SVGID_00000103968166184324977410000002533562371946044055_" gradientUnits="userSpaceOnUse" x1="-438.9639" y1="877.0784" x2="-406.1709" y2="877.0784" gradientTransform="matrix(0 1 1 0 -876.9034 579.104)">
			<stop  offset="0" style="stop-color:#676067"/>
			<stop  offset="6.402420e-02" style="stop-color:#654E63"/>
			<stop  offset="0.186" style="stop-color:#786F77"/>
			<stop  offset="0.8064" style="stop-color:#786F77"/>
			<stop  offset="0.9191" style="stop-color:#654E63"/>
			<stop  offset="1" style="stop-color:#676067"/>
		</linearGradient>
		<path style="fill:url(#SVGID_00000103968166184324977410000002533562371946044055_);" d="M0.3,172.9v-32.8L0,140.6
			c0.2,3.5,0.2,28.5,0,31.9L0.3,172.9z"/>
		
			<linearGradient id="SVGID_00000012460614759765539690000007727654145248471461_" gradientUnits="userSpaceOnUse" x1="1.425" y1="172.9417" x2="1.425" y2="140.1401">
			<stop  offset="0" style="stop-color:#68595F"/>
			<stop  offset="5.306120e-02" style="stop-color:#2D1E2C"/>
			<stop  offset="0.5184" style="stop-color:#5E3B5B"/>
			<stop  offset="0.9646" style="stop-color:#2D1E2C"/>
			<stop  offset="1" style="stop-color:#5B4A5C"/>
		</linearGradient>
		
			<rect x="1" y="140.1" style="fill:url(#SVGID_00000012460614759765539690000007727654145248471461_);" width="0.8" height="32.8"/>
	</g>
	<g>
		
			<linearGradient id="SVGID_00000127754385036472999160000017821334391427863741_" gradientUnits="userSpaceOnUse" x1="-511.229" y1="877.6034" x2="-494.3935" y2="877.6034" gradientTransform="matrix(0 1 1 0 -876.9034 579.104)">
			<stop  offset="0" style="stop-color:#68595F"/>
			<stop  offset="1.850530e-02" style="stop-color:#896E80"/>
			<stop  offset="3.819530e-02" style="stop-color:#5E3B5B"/>
			<stop  offset="8.205520e-02" style="stop-color:#2D1E2C"/>
			<stop  offset="0.1053" style="stop-color:#704A6A"/>
			<stop  offset="0.9049" style="stop-color:#615060"/>
			<stop  offset="0.9391" style="stop-color:#2D1E2C"/>
			<stop  offset="0.9646" style="stop-color:#5E3B5B"/>
			<stop  offset="0.9829" style="stop-color:#845675"/>
			<stop  offset="1" style="stop-color:#5B4A5C"/>
		</linearGradient>
		
			<rect x="0.3" y="67.9" style="fill:url(#SVGID_00000127754385036472999160000017821334391427863741_);" width="0.7" height="16.8"/>
		
			<linearGradient id="SVGID_00000096040290999605625930000002419909113740982667_" gradientUnits="userSpaceOnUse" x1="-511.2209" y1="877.0784" x2="-494.392" y2="877.0784" gradientTransform="matrix(0 1 1 0 -876.9034 579.104)">
			<stop  offset="0" style="stop-color:#676067"/>
			<stop  offset="6.402420e-02" style="stop-color:#654E63"/>
			<stop  offset="0.186" style="stop-color:#786F77"/>
			<stop  offset="0.8064" style="stop-color:#786F77"/>
			<stop  offset="0.9191" style="stop-color:#654E63"/>
			<stop  offset="1" style="stop-color:#676067"/>
		</linearGradient>
		<path style="fill:url(#SVGID_00000096040290999605625930000002419909113740982667_);" d="M0.3,84.7V67.9L0,68.3
			c0.2,3.3,0.2,12.7,0,16L0.3,84.7z"/>
		
			<linearGradient id="SVGID_00000038392083917844934840000008722629905652577193_" gradientUnits="userSpaceOnUse" x1="1.425" y1="84.72" x2="1.425" y2="67.8831">
			<stop  offset="0" style="stop-color:#68595F"/>
			<stop  offset="5.306120e-02" style="stop-color:#2D1E2C"/>
			<stop  offset="0.5184" style="stop-color:#5E3B5B"/>
			<stop  offset="0.9646" style="stop-color:#2D1E2C"/>
			<stop  offset="1" style="stop-color:#5B4A5C"/>
		</linearGradient>
		<rect x="1" y="67.9" style="fill:url(#SVGID_00000038392083917844934840000008722629905652577193_);" width="0.8" height="16.8"/>
	</g>
</g>
<g>
	<path class="st2" d="M122.3,30.1H88.9c-3.8,0-6.8-3.1-6.8-6.8l0,0c0-3.8,3.1-6.8,6.8-6.8h33.5c3.8,0,6.8,3.1,6.8,6.8l0,0
		C129.1,27,126.1,30.1,122.3,30.1z"/>
	<g>
		
			<linearGradient id="SVGID_00000155109492932727802580000013963585114612450444_" gradientUnits="userSpaceOnUse" x1="120.4336" y1="26.031" x2="120.4336" y2="20.1697">
			<stop  offset="0" style="stop-color:#666666"/>
			<stop  offset="1" style="stop-color:#010104"/>
		</linearGradient>
		<circle style="fill:url(#SVGID_00000155109492932727802580000013963585114612450444_);" cx="120.4" cy="23.2" r="3"/>
		
			<image style="overflow:visible;" width="6" height="6" xlink:href="3BCF2FD086A76AFF.png"  transform="matrix(1 0 0 1 117.5921 20.3963)">
		</image>
		
			<linearGradient id="SVGID_00000061467013091377276620000000436225701103867324_" gradientUnits="userSpaceOnUse" x1="117.0123" y1="-364.0384" x2="117.0123" y2="-367.3875" gradientTransform="matrix(-1 0 0 -1 237.4459 -342.3939)">
			<stop  offset="0" style="stop-color:#0B131C"/>
			<stop  offset="1" style="stop-color:#354039"/>
		</linearGradient>
		<circle style="fill:url(#SVGID_00000061467013091377276620000000436225701103867324_);" cx="120.4" cy="23.2" r="1.7"/>
		<g id="Camera_00000181771962106803296260000008551096653390836141_">
			
				<linearGradient id="SVGID_00000044146044947572199840000012330241940167860361_" gradientUnits="userSpaceOnUse" x1="121.4844" y1="24.2927" x2="119.3793" y2="22.1876">
				<stop  offset="0" style="stop-color:#231F20"/>
				<stop  offset="8.317667e-02" style="stop-color:#222326"/>
				<stop  offset="0.1958" style="stop-color:#1F2C37"/>
				<stop  offset="0.3254" style="stop-color:#1A3D54"/>
				<stop  offset="0.4675" style="stop-color:#13537C"/>
				<stop  offset="0.62" style="stop-color:#0B71AE"/>
				<stop  offset="0.7788" style="stop-color:#0094EC"/>
				<stop  offset="0.7847" style="stop-color:#0095EE"/>
				<stop  offset="0.7998" style="stop-color:#0488D6"/>
				<stop  offset="0.8384" style="stop-color:#0D689F"/>
				<stop  offset="0.8761" style="stop-color:#154E72"/>
				<stop  offset="0.912" style="stop-color:#1B394E"/>
				<stop  offset="0.9455" style="stop-color:#1F2B35"/>
				<stop  offset="0.9758" style="stop-color:#222225"/>
				<stop  offset="1" style="stop-color:#231F20"/>
			</linearGradient>
			<path style="fill:url(#SVGID_00000044146044947572199840000012330241940167860361_);" d="M121.9,23.2c0,0.8-0.7,1.5-1.5,1.5
				c-0.8,0-1.5-0.7-1.5-1.5c0-0.8,0.7-1.5,1.5-1.5C121.3,21.8,121.9,22.4,121.9,23.2z"/>
			
				<radialGradient id="SVGID_00000124839980332035898510000009396826204542373042_" cx="120.4328" cy="23.2403" r="1.4876" gradientUnits="userSpaceOnUse">
				<stop  offset="0" style="stop-color:#231F20"/>
				<stop  offset="0.2019" style="stop-color:#175168"/>
				<stop  offset="0.3838" style="stop-color:#0D78A2"/>
				<stop  offset="0.5384" style="stop-color:#0695CB"/>
				<stop  offset="0.6597" style="stop-color:#02A7E5"/>
				<stop  offset="0.7326" style="stop-color:#00ADEE"/>
				<stop  offset="0.7594" style="stop-color:#02A6E4"/>
				<stop  offset="0.8055" style="stop-color:#0693C8"/>
				<stop  offset="0.8651" style="stop-color:#0E749C"/>
				<stop  offset="0.9352" style="stop-color:#184A5F"/>
				<stop  offset="1" style="stop-color:#231F20"/>
			</radialGradient>
			<path style="fill:url(#SVGID_00000124839980332035898510000009396826204542373042_);" d="M121.9,23.2c0,0.8-0.7,1.5-1.5,1.5
				c-0.8,0-1.5-0.7-1.5-1.5c0-0.8,0.7-1.5,1.5-1.5C121.3,21.8,121.9,22.4,121.9,23.2z"/>
		</g>
		
			<radialGradient id="SVGID_00000061462259968527562910000016719438625790236072_" cx="121.2499" cy="24.0163" r="0.5312" gradientUnits="userSpaceOnUse">
			<stop  offset="0" style="stop-color:#CCCCCC"/>
			<stop  offset="2.412361e-02" style="stop-color:#C4C4C4"/>
			<stop  offset="0.2198" style="stop-color:#898989"/>
			<stop  offset="0.4085" style="stop-color:#585858"/>
			<stop  offset="0.5855" style="stop-color:#323232"/>
			<stop  offset="0.7482" style="stop-color:#161616"/>
			<stop  offset="0.8915" style="stop-color:#060606"/>
			<stop  offset="1" style="stop-color:#000000"/>
		</radialGradient>
		<path style="fill:url(#SVGID_00000061462259968527562910000016719438625790236072_);" d="M121.8,24c0-0.3-0.2-0.5-0.5-0.5
			c-0.3,0-0.5,0.2-0.5,0.5s0.2,0.5,0.5,0.5C121.5,24.5,121.8,24.3,121.8,24z"/>
	</g>
</g>
</svg>
